<mxfile host="app.diagrams.net" modified="2022-10-02T17:32:14.193Z" agent="5.0 (Macintosh; Intel Mac OS X 10_15_7) AppleWebKit/605.1.15 (KHTML, like Gecko) Version/16.0 Safari/605.1.15" etag="GJBeZqSnrU4mFIrQelUr" version="20.3.2" type="github">
  <diagram id="C5RBs43oDa-KdzZeNtuy" name="Generate3By3Square">
    <mxGraphModel dx="901" dy="617" grid="1" gridSize="10" guides="1" tooltips="1" connect="1" arrows="1" fold="1" page="1" pageScale="1" pageWidth="827" pageHeight="1169" math="0" shadow="0">
      <root>
        <mxCell id="WIyWlLk6GJQsqaUBKTNV-0" />
        <mxCell id="WIyWlLk6GJQsqaUBKTNV-1" parent="WIyWlLk6GJQsqaUBKTNV-0" />
        <mxCell id="fJoIIDvibCOADlClW87m-39" style="edgeStyle=orthogonalEdgeStyle;orthogonalLoop=1;jettySize=auto;html=1;entryX=0;entryY=0.5;entryDx=0;entryDy=0;entryPerimeter=0;endArrow=none;endFill=0;strokeWidth=2;curved=1;" edge="1" parent="WIyWlLk6GJQsqaUBKTNV-1" source="fJoIIDvibCOADlClW87m-0" target="fJoIIDvibCOADlClW87m-38">
          <mxGeometry relative="1" as="geometry" />
        </mxCell>
        <mxCell id="fJoIIDvibCOADlClW87m-43" style="edgeStyle=orthogonalEdgeStyle;curved=1;orthogonalLoop=1;jettySize=auto;html=1;entryX=0.5;entryY=0;entryDx=0;entryDy=0;strokeWidth=2;endArrow=classic;endFill=1;" edge="1" parent="WIyWlLk6GJQsqaUBKTNV-1" source="fJoIIDvibCOADlClW87m-0" target="fJoIIDvibCOADlClW87m-3">
          <mxGeometry relative="1" as="geometry" />
        </mxCell>
        <mxCell id="fJoIIDvibCOADlClW87m-0" value="Start" style="ellipse;whiteSpace=wrap;html=1;sketch=1;strokeWidth=2;" vertex="1" parent="WIyWlLk6GJQsqaUBKTNV-1">
          <mxGeometry x="340" y="40" width="120" height="60" as="geometry" />
        </mxCell>
        <mxCell id="fJoIIDvibCOADlClW87m-45" style="edgeStyle=orthogonalEdgeStyle;curved=1;orthogonalLoop=1;jettySize=auto;html=1;entryX=0.5;entryY=0;entryDx=0;entryDy=0;strokeWidth=2;endArrow=classic;endFill=1;" edge="1" parent="WIyWlLk6GJQsqaUBKTNV-1" source="fJoIIDvibCOADlClW87m-2" target="fJoIIDvibCOADlClW87m-4">
          <mxGeometry relative="1" as="geometry" />
        </mxCell>
        <mxCell id="fJoIIDvibCOADlClW87m-2" value="magicNumber &amp;lt;- MagicNumber(3)" style="shape=process;whiteSpace=wrap;html=1;backgroundOutline=1;sketch=1;strokeWidth=2;" vertex="1" parent="WIyWlLk6GJQsqaUBKTNV-1">
          <mxGeometry x="275" y="220" width="250" height="60" as="geometry" />
        </mxCell>
        <mxCell id="fJoIIDvibCOADlClW87m-44" style="edgeStyle=orthogonalEdgeStyle;curved=1;orthogonalLoop=1;jettySize=auto;html=1;entryX=0.5;entryY=0;entryDx=0;entryDy=0;strokeWidth=2;endArrow=classic;endFill=1;" edge="1" parent="WIyWlLk6GJQsqaUBKTNV-1" source="fJoIIDvibCOADlClW87m-3" target="fJoIIDvibCOADlClW87m-2">
          <mxGeometry relative="1" as="geometry" />
        </mxCell>
        <mxCell id="fJoIIDvibCOADlClW87m-3" value="n = 3&lt;br&gt;matrix[n, n]" style="rounded=0;whiteSpace=wrap;html=1;sketch=1;strokeWidth=2;" vertex="1" parent="WIyWlLk6GJQsqaUBKTNV-1">
          <mxGeometry x="275" y="130" width="250" height="60" as="geometry" />
        </mxCell>
        <mxCell id="fJoIIDvibCOADlClW87m-46" style="edgeStyle=orthogonalEdgeStyle;curved=1;orthogonalLoop=1;jettySize=auto;html=1;entryX=0.5;entryY=0;entryDx=0;entryDy=0;strokeWidth=2;endArrow=classic;endFill=1;" edge="1" parent="WIyWlLk6GJQsqaUBKTNV-1" source="fJoIIDvibCOADlClW87m-4" target="fJoIIDvibCOADlClW87m-6">
          <mxGeometry relative="1" as="geometry" />
        </mxCell>
        <mxCell id="fJoIIDvibCOADlClW87m-4" value="matrix[1, 1] &amp;lt;- magicNumber / n" style="whiteSpace=wrap;html=1;sketch=1;strokeWidth=2;" vertex="1" parent="WIyWlLk6GJQsqaUBKTNV-1">
          <mxGeometry x="275" y="310" width="250" height="60" as="geometry" />
        </mxCell>
        <mxCell id="fJoIIDvibCOADlClW87m-48" value="" style="edgeStyle=orthogonalEdgeStyle;curved=1;orthogonalLoop=1;jettySize=auto;html=1;strokeWidth=2;endArrow=classic;endFill=1;" edge="1" parent="WIyWlLk6GJQsqaUBKTNV-1" source="fJoIIDvibCOADlClW87m-6" target="fJoIIDvibCOADlClW87m-7">
          <mxGeometry relative="1" as="geometry" />
        </mxCell>
        <mxCell id="fJoIIDvibCOADlClW87m-6" value="FillMatrixCorners(matrix, n)" style="shape=process;whiteSpace=wrap;html=1;backgroundOutline=1;sketch=1;strokeWidth=2;" vertex="1" parent="WIyWlLk6GJQsqaUBKTNV-1">
          <mxGeometry x="275" y="400" width="250" height="60" as="geometry" />
        </mxCell>
        <mxCell id="fJoIIDvibCOADlClW87m-49" value="" style="edgeStyle=orthogonalEdgeStyle;curved=1;orthogonalLoop=1;jettySize=auto;html=1;strokeWidth=2;endArrow=classic;endFill=1;" edge="1" parent="WIyWlLk6GJQsqaUBKTNV-1" source="fJoIIDvibCOADlClW87m-7" target="fJoIIDvibCOADlClW87m-36">
          <mxGeometry relative="1" as="geometry" />
        </mxCell>
        <mxCell id="fJoIIDvibCOADlClW87m-7" value="FillEmptyCells(matrix)" style="shape=process;whiteSpace=wrap;html=1;backgroundOutline=1;sketch=1;strokeWidth=2;" vertex="1" parent="WIyWlLk6GJQsqaUBKTNV-1">
          <mxGeometry x="275" y="490" width="250" height="60" as="geometry" />
        </mxCell>
        <mxCell id="fJoIIDvibCOADlClW87m-8" value="End" style="ellipse;whiteSpace=wrap;html=1;sketch=1;strokeWidth=2;" vertex="1" parent="WIyWlLk6GJQsqaUBKTNV-1">
          <mxGeometry x="340" y="670" width="120" height="60" as="geometry" />
        </mxCell>
        <mxCell id="fJoIIDvibCOADlClW87m-50" value="" style="edgeStyle=orthogonalEdgeStyle;curved=1;orthogonalLoop=1;jettySize=auto;html=1;strokeWidth=2;endArrow=classic;endFill=1;" edge="1" parent="WIyWlLk6GJQsqaUBKTNV-1" source="fJoIIDvibCOADlClW87m-36" target="fJoIIDvibCOADlClW87m-8">
          <mxGeometry relative="1" as="geometry" />
        </mxCell>
        <mxCell id="fJoIIDvibCOADlClW87m-36" value="matrix" style="strokeWidth=2;html=1;shape=mxgraph.flowchart.document2;whiteSpace=wrap;size=0.25;sketch=1;" vertex="1" parent="WIyWlLk6GJQsqaUBKTNV-1">
          <mxGeometry x="275" y="580" width="250" height="60" as="geometry" />
        </mxCell>
        <mxCell id="fJoIIDvibCOADlClW87m-38" value="&lt;font style=&quot;font-size: 14px;&quot;&gt;&lt;b&gt;Generate 3 * 3 Magic Square&lt;/b&gt;&lt;br&gt;&lt;br&gt;n - целое число, длина квадрата&lt;br&gt;&lt;br&gt;matrix[n, n] - двумерный массив&lt;br&gt;n * n элементов. Индексация с 0.&lt;/font&gt;" style="strokeWidth=2;html=1;shape=mxgraph.flowchart.annotation_2;align=left;labelPosition=right;pointerEvents=1;sketch=1;" vertex="1" parent="WIyWlLk6GJQsqaUBKTNV-1">
          <mxGeometry x="540" y="20" width="50" height="100" as="geometry" />
        </mxCell>
      </root>
    </mxGraphModel>
  </diagram>
</mxfile>
